<svg width="30" height="31" viewBox="0 0 30 31" fill="none" xmlns="http://www.w3.org/2000/svg">
<path fill-rule="evenodd" clip-rule="evenodd" d="M21.249 0.5H8.74805C3.92432 0.5 0 4.42578 0 9.25098V21.752C0 26.5757 3.92578 30.5 8.75098 30.5H21.252C26.0757 30.5 30 26.5742 30 21.749V9.24805C30 4.42432 26.0742 0.5 21.249 0.5ZM15 23C10.8633 23 7.5 19.6367 7.5 15.5C7.5 11.3633 10.8633 8 15 8C19.1367 8 22.5 11.3633 22.5 15.5C22.5 19.6367 19.1367 23 15 23ZM22.5 6.75049C22.5 7.44043 23.0596 8 23.7495 8C24.4395 8 25.0005 7.44043 25.0005 6.75049C25.0005 6.06055 24.4395 5.49951 23.7495 5.49951C23.0596 5.49951 22.5 6.06055 22.5 6.75049Z" fill="white"/>
</svg>
