<svg width="31" height="31" viewBox="0 0 31 31" fill="none" xmlns="http://www.w3.org/2000/svg">
<path fill-rule="evenodd" clip-rule="evenodd" d="M0.332642 15.4999C0.332642 7.31496 7.02907 0.61853 15.2141 0.61853C23.399 0.61853 30.0955 7.31496 30.0955 15.4999C30.0955 23.6849 23.399 30.3814 15.2141 30.3814C7.02907 30.3814 0.332642 23.6849 0.332642 15.4999ZM20.7549 21.8878C20.9183 21.9822 21.0475 22.0569 21.2506 22.0569C21.6705 22.0569 22.0905 21.7765 22.3737 21.0775C22.3737 20.6152 22.1821 20.4397 21.9582 20.2344C21.9111 20.1913 21.8627 20.1468 21.8142 20.0982C19.2947 18.6975 16.3538 17.859 13.1354 17.859C11.1753 17.859 9.35608 18.1381 7.53549 18.558C6.97606 18.558 6.69564 18.9779 6.69564 19.5373C6.69564 20.0968 7.11557 20.5167 7.675 20.5167C7.73344 20.5167 7.81565 20.4924 7.91186 20.4641L7.91188 20.4641L7.9119 20.4641L7.91192 20.4641C8.04765 20.424 8.21125 20.3758 8.37533 20.3758C9.77461 20.0968 11.4543 19.8164 12.9945 19.8164C15.793 19.8164 18.4521 20.5167 20.5517 21.7765C20.628 21.8144 20.6939 21.8525 20.7549 21.8878ZM22.7894 18.1381C22.5104 18.1381 22.23 17.9986 21.9509 17.859C19.5709 16.3189 16.2115 15.479 12.5732 15.479C10.7526 15.479 9.07288 15.7594 7.81311 16.0385C7.53409 16.178 7.39458 16.178 7.11417 16.178C6.41523 16.178 5.99391 15.6185 5.99391 15.0577C5.99391 14.3588 6.27293 14.0784 6.97327 13.7979C8.65295 13.378 10.3326 12.9581 12.7127 12.9581C16.6329 12.9581 20.2713 13.9374 23.3516 15.758C23.7701 16.0371 24.0506 16.457 24.0506 16.8783C23.911 17.5772 23.4911 18.1381 22.7894 18.1381ZM24.1521 13.5301C24.3172 13.6037 24.4367 13.657 24.61 13.657C25.4498 13.657 26.0107 13.0976 26.1502 12.2592C26.1502 11.5574 25.7302 11.1389 25.3103 10.8585C21.8114 9.03929 17.3318 8.05994 12.9917 8.05994C10.4735 8.05994 8.09352 8.33895 5.85301 8.89839C5.29358 9.03929 4.87366 9.45921 4.87366 10.2991C4.87366 11.1389 5.43448 11.8392 6.27293 11.6983C6.50428 11.6983 6.65093 11.6556 6.78266 11.6172C6.89003 11.5858 6.98747 11.5574 7.11278 11.5574C8.93337 11.1389 11.033 10.8585 12.9917 10.8585C16.9119 10.8585 20.9716 11.8378 23.7701 13.378C23.9305 13.4313 24.05 13.4846 24.1521 13.5301Z" fill="white"/>
</svg>
