<svg width="31" height="25" viewBox="0 0 31 25" fill="none" xmlns="http://www.w3.org/2000/svg">
<path d="M30.0955 3.19884C28.9921 3.68823 27.8049 4.0181 26.561 4.16681C27.832 3.40568 28.8069 2.19977 29.2666 0.762687C28.0781 1.46839 26.7597 1.97941 25.3575 2.25655C24.2339 1.06011 22.6357 0.3125 20.8657 0.3125C17.4664 0.3125 14.7108 3.06905 14.7108 6.46641C14.7108 6.94904 14.7662 7.41951 14.8703 7.86834C9.75517 7.61148 5.22008 5.16181 2.18317 1.43729C1.65583 2.34713 1.3516 3.40297 1.3516 4.53317C1.3516 6.66785 2.43737 8.55106 4.08834 9.65422C3.07964 9.62178 2.13043 9.34463 1.30157 8.88498C1.30157 8.91067 1.30157 8.935 1.30157 8.96204C1.30157 11.9444 3.42173 14.4305 6.23825 14.9956C5.72308 15.1362 5.17816 15.2106 4.61567 15.2106C4.2195 15.2106 3.83414 15.1714 3.45824 15.1011C4.24248 17.5453 6.51544 19.3258 9.20755 19.3758C7.10227 21.0265 4.44801 22.0107 1.56389 22.0107C1.06765 22.0107 0.578174 21.9823 0.095459 21.9242C2.82003 23.6695 6.053 24.6875 9.53071 24.6875C20.8509 24.6875 27.041 15.312 27.041 7.17887C27.041 6.91254 27.0342 6.64757 27.0234 6.38394C28.2268 5.51466 29.2707 4.43178 30.0955 3.19884Z" fill="white"/>
</svg>
